<?xml version="1.0" standalone="no"?>
<!DOCTYPE svg PUBLIC "-//W3C//DTD SVG 20010904//EN"
 "http://www.w3.org/TR/2001/REC-SVG-20010904/DTD/svg10.dtd">
<svg version="1.0" xmlns="http://www.w3.org/2000/svg"
 width="7500.000000pt" height="7500.000000pt" viewBox="0 0 7500.000000 7500.000000"
 preserveAspectRatio="xMidYMid meet">
<metadata>
Created by potrace 1.16, written by Peter Selinger 2001-2019
</metadata>
<g transform="translate(0.000000,7500.000000) scale(0.100000,-0.100000)"
fill="#000000" stroke="none">
<path d="M30582 57487 l-22 -23 0 -3823 0 -3824 22 -18 c11 -11 28 -19 37 -19
9 0 2244 -1 4966 -3 3707 -3 4969 -7 5028 -15 82 -13 143 -21 352 -47 72 -9
153 -22 180 -30 28 -7 86 -19 130 -25 44 -7 116 -22 160 -35 44 -12 98 -26
120 -29 45 -7 147 -37 345 -101 193 -63 229 -75 280 -98 25 -11 68 -28 95 -37
28 -10 88 -35 135 -55 47 -21 105 -45 130 -55 61 -25 401 -199 420 -215 14
-11 56 -36 129 -74 55 -28 357 -225 421 -273 14 -11 66 -49 115 -86 439 -326
861 -752 1201 -1212 39 -52 87 -120 107 -150 20 -30 46 -68 57 -85 53 -75 144
-223 156 -251 7 -17 19 -36 27 -42 8 -7 22 -31 33 -54 10 -24 22 -45 25 -48
17 -12 269 -528 269 -550 0 -7 9 -29 19 -49 31 -57 132 -328 157 -420 9 -30
21 -63 29 -75 7 -11 16 -39 19 -61 4 -22 20 -83 35 -135 16 -52 33 -117 39
-145 6 -27 20 -86 31 -130 11 -44 23 -104 27 -135 3 -30 12 -77 20 -105 7 -27
21 -104 29 -170 9 -66 20 -151 25 -190 5 -38 15 -113 22 -165 20 -144 19
-6294 0 -6430 -8 -52 -18 -124 -22 -160 -30 -230 -42 -311 -54 -360 -8 -30
-17 -79 -20 -108 -4 -29 -16 -87 -27 -130 -12 -42 -29 -113 -39 -157 -9 -44
-27 -109 -39 -145 -12 -36 -24 -83 -28 -105 -3 -22 -11 -51 -18 -65 -7 -14
-35 -92 -63 -175 -28 -82 -60 -169 -71 -192 -12 -23 -21 -47 -21 -53 0 -12
-42 -114 -84 -205 -13 -27 -43 -93 -67 -145 -24 -52 -46 -99 -50 -105 -4 -5
-29 -53 -57 -105 -27 -52 -65 -122 -85 -155 -20 -33 -44 -76 -53 -95 -9 -19
-29 -53 -44 -75 -15 -22 -58 -87 -96 -145 -335 -515 -750 -974 -1235 -1365
-68 -56 -155 -123 -194 -150 -38 -27 -74 -53 -80 -57 -64 -49 -169 -120 -257
-175 -21 -12 -56 -35 -78 -49 -21 -14 -53 -33 -70 -43 -76 -41 -317 -173 -340
-186 -14 -8 -41 -22 -60 -31 -19 -9 -78 -37 -130 -62 -52 -24 -122 -56 -155
-69 -198 -82 -368 -145 -464 -174 -35 -10 -68 -22 -75 -27 -6 -5 -36 -15 -66
-22 -30 -6 -89 -22 -130 -35 -91 -28 -358 -92 -420 -100 -25 -4 -70 -13 -100
-20 -30 -8 -109 -21 -175 -29 -119 -16 -176 -23 -350 -48 -72 -10 -733 -13
-3220 -13 -2930 0 -3139 1 -3265 18 -231 30 -352 47 -440 64 -208 38 -278 52
-320 63 -25 6 -79 20 -120 29 -41 10 -112 30 -158 45 -92 29 -144 33 -161 12
-8 -10 -11 -1036 -11 -3971 0 -3687 1 -3960 17 -3977 16 -18 152 -18 4632 -15
4857 3 4796 2 5181 47 91 11 217 24 280 29 98 8 235 27 510 70 172 27 372 64
415 76 28 8 84 19 125 25 41 7 113 23 160 36 47 13 112 28 145 34 78 12 314
73 365 94 22 9 50 16 63 16 12 0 65 13 117 29 52 17 142 44 200 61 58 17 141
45 186 61 45 16 89 29 98 29 10 0 32 7 49 15 42 19 219 83 277 100 25 7 70 24
100 39 30 14 61 26 68 26 7 0 32 9 55 19 23 11 67 29 97 41 214 85 320 130
365 154 17 9 33 16 37 16 8 0 96 39 203 90 236 111 322 153 335 161 8 4 65 34
127 66 61 32 133 69 160 83 26 14 59 32 73 41 14 9 88 51 165 94 77 42 205
117 285 165 80 49 165 101 190 116 50 31 268 172 315 204 17 11 75 52 130 90
55 38 114 79 130 90 34 24 212 155 235 173 8 7 51 39 94 72 203 154 231 176
390 310 335 280 624 545 896 822 113 114 228 233 255 263 28 30 86 96 131 145
210 233 466 540 625 752 40 54 79 103 85 108 7 6 24 28 38 50 31 48 57 84 114
162 37 50 95 134 252 363 44 65 146 223 164 256 9 16 57 94 106 174 77 127
147 246 238 410 45 80 88 163 137 260 26 52 55 106 65 120 9 14 25 45 34 70
10 25 24 52 31 60 7 8 16 26 20 40 4 14 32 77 63 140 82 173 108 229 138 300
15 36 42 99 59 140 18 41 36 86 40 100 4 14 13 34 19 45 7 11 20 43 30 70 10
28 26 66 37 86 10 20 19 43 19 50 0 8 15 52 33 99 42 104 53 134 84 230 13 41
31 87 39 102 8 15 18 46 24 70 9 47 60 202 91 283 10 28 19 57 19 65 0 8 15
65 34 125 19 61 39 130 45 155 6 25 23 90 37 145 13 55 33 129 44 165 11 36
20 73 20 82 0 9 16 81 35 159 19 79 35 154 35 167 0 13 9 54 19 90 11 37 27
121 36 187 10 66 26 154 36 197 11 42 19 94 19 115 0 21 11 103 25 183 14 79
30 199 35 265 6 66 19 194 30 285 45 380 44 307 48 5220 2 3330 0 4737 -8
4890 -6 118 -15 292 -20 385 -5 94 -13 194 -19 222 -6 29 -15 115 -21 190 -12
147 -31 296 -55 421 -8 42 -15 96 -15 120 0 23 -9 80 -19 125 -11 45 -27 134
-36 197 -10 63 -26 144 -36 179 -10 35 -19 74 -19 88 0 23 -52 260 -81 368 -6
22 -19 81 -31 130 -11 50 -30 122 -43 160 -13 39 -27 90 -30 115 -4 25 -13 56
-20 70 -7 14 -22 66 -35 115 -12 50 -26 95 -30 100 -5 6 -15 37 -23 70 -8 33
-27 96 -42 140 -29 86 -34 99 -72 215 -14 41 -31 89 -39 105 -7 17 -22 55 -32
85 -50 142 -67 188 -82 220 -10 19 -26 60 -35 90 -10 30 -26 68 -37 85 -10 16
-18 36 -18 44 0 8 -10 35 -21 60 -12 25 -25 55 -29 66 -4 11 -19 45 -33 75
-13 30 -41 93 -62 140 -86 192 -272 572 -377 767 -88 163 -193 351 -212 378
-21 30 -29 44 -75 126 -13 24 -48 80 -77 126 -30 46 -54 85 -54 87 0 3 -115
181 -150 231 -12 17 -43 64 -71 105 -125 190 -276 398 -476 656 -82 106 -282
355 -293 364 -3 3 -48 55 -100 115 -279 324 -660 720 -930 965 -63 58 -142
130 -175 161 -76 71 -359 313 -405 347 -19 15 -62 49 -95 78 -33 28 -161 127
-286 220 -231 173 -272 203 -419 305 -47 32 -98 68 -115 79 -62 43 -291 192
-325 211 -19 11 -62 38 -95 60 -33 21 -71 44 -85 51 -14 7 -43 24 -65 38 -22
14 -51 31 -65 38 -14 7 -50 28 -80 47 -30 18 -118 68 -195 110 -77 41 -147 80
-155 85 -8 5 -64 35 -125 66 -60 31 -121 62 -135 70 -14 8 -41 20 -60 28 -19
8 -46 22 -60 30 -14 9 -61 32 -105 52 -44 20 -107 49 -140 64 -82 39 -178 82
-250 113 -33 14 -91 39 -129 56 -37 17 -73 31 -79 31 -6 0 -29 9 -51 19 -79
37 -211 90 -241 97 -16 4 -51 17 -76 30 -26 13 -68 28 -95 35 -27 6 -58 17
-69 24 -11 6 -42 17 -70 25 -27 7 -62 19 -76 26 -15 7 -57 22 -95 33 -38 10
-94 28 -124 39 -30 11 -93 31 -140 45 -47 14 -137 42 -200 61 -63 20 -125 36
-137 36 -12 0 -46 9 -75 20 -29 10 -100 30 -158 44 -58 14 -123 29 -145 35
-119 31 -345 81 -366 81 -13 0 -49 7 -79 15 -30 9 -134 29 -230 46 -181 32
-209 37 -395 64 -60 9 -150 22 -200 30 -49 7 -133 16 -185 19 -52 4 -165 15
-250 26 -360 45 -279 44 -6361 47 l-5775 3 -22 -23z"/>
<path d="M21142 48050 l-22 -21 0 -5642 c0 -6067 0 -6085 50 -6502 11 -88 22
-196 25 -240 7 -107 23 -227 46 -355 10 -58 19 -127 19 -155 0 -27 6 -73 14
-101 7 -28 23 -111 35 -185 12 -74 29 -158 37 -187 8 -28 21 -91 29 -140 8
-48 26 -130 40 -182 13 -52 25 -108 25 -123 0 -15 7 -44 16 -65 8 -20 24 -80
35 -133 10 -53 26 -113 35 -134 8 -20 20 -62 25 -93 6 -32 17 -70 24 -87 7
-16 23 -66 34 -110 11 -44 30 -107 40 -140 11 -33 29 -89 41 -125 12 -36 29
-92 39 -125 9 -33 22 -69 29 -80 6 -11 22 -54 35 -95 32 -96 42 -126 83 -232
19 -48 34 -95 34 -103 0 -9 7 -26 15 -39 8 -12 27 -56 41 -96 14 -40 32 -83
40 -94 8 -11 14 -27 14 -36 0 -8 7 -28 16 -45 9 -16 25 -52 35 -80 11 -27 28
-68 39 -90 10 -22 36 -78 56 -125 105 -241 306 -643 469 -936 33 -59 73 -130
88 -158 15 -28 34 -58 42 -66 8 -9 15 -21 15 -27 0 -6 9 -21 19 -35 11 -13 29
-42 41 -63 11 -22 41 -71 66 -110 24 -38 47 -76 51 -83 6 -14 115 -183 153
-237 12 -16 44 -65 73 -109 29 -43 61 -91 72 -106 11 -16 46 -66 78 -112 32
-45 73 -102 90 -125 18 -23 54 -73 82 -110 415 -568 1020 -1233 1605 -1764
256 -233 641 -549 880 -724 41 -30 109 -80 150 -110 68 -50 175 -125 270 -191
19 -13 49 -33 65 -44 64 -44 292 -193 325 -211 19 -11 62 -38 95 -59 100 -65
359 -215 531 -308 55 -29 106 -57 114 -62 67 -42 649 -330 666 -330 6 0 139
-61 189 -87 17 -8 59 -26 94 -39 36 -14 69 -28 75 -33 6 -5 29 -14 51 -21 22
-7 61 -23 87 -36 46 -23 100 -30 132 -18 15 6 16 996 16 11134 l0 11128 -25
16 c-22 15 -345 16 -3843 16 l-3818 0 -22 -20z"/>
<path d="M32912 45724 l-22 -15 0 -3077 c0 -3008 1 -3080 20 -3222 40 -296 54
-360 124 -561 14 -41 26 -81 26 -88 0 -33 168 -400 212 -463 10 -14 18 -29 18
-33 0 -9 72 -128 82 -135 3 -3 17 -23 30 -45 105 -180 375 -484 588 -661 214
-179 502 -364 690 -444 125 -53 265 -109 315 -125 240 -78 365 -105 658 -145
51 -6 646 -10 1760 -10 1362 1 1703 3 1792 15 190 23 346 54 465 91 63 20 149
46 190 59 41 12 102 35 135 50 33 15 83 38 112 51 28 13 55 24 58 24 12 0 251
135 335 189 371 238 676 539 922 908 83 125 228 379 228 400 0 6 21 55 46 109
26 55 55 126 65 159 10 33 36 118 58 189 40 126 77 319 101 521 15 126 8 3486
-7 3580 -5 33 -18 110 -27 170 -28 175 -140 532 -211 675 -12 25 -26 56 -30
69 -9 31 -141 271 -181 330 -16 24 -40 61 -54 82 -250 379 -653 751 -1060 979
-125 69 -453 220 -480 220 -5 0 -44 12 -87 26 -218 71 -327 94 -605 128 -112
14 -482 16 -3185 16 -2752 0 -3061 -2 -3081 -16z"/>
<path d="M29424 19691 c-66 -38 -119 -100 -140 -164 -23 -70 -22 -617 2 -689
19 -60 78 -126 143 -161 45 -25 63 -28 186 -34 l135 -6 0 -414 0 -413 -140 0
-140 0 0 180 0 180 -116 0 -116 0 5 -162 c5 -185 17 -230 74 -297 19 -23 58
-55 87 -71 50 -29 53 -30 205 -30 181 0 212 10 285 91 79 88 81 100 81 529 0
429 -2 441 -81 529 -71 79 -106 91 -267 91 l-137 0 0 330 0 330 125 0 125 0 0
-100 0 -100 111 0 112 0 -7 98 c-8 132 -45 207 -129 266 l-58 41 -147 3 -147
3 -51 -30z"/>
<path d="M51294 19691 c-66 -38 -119 -100 -140 -164 -23 -70 -22 -617 2 -689
19 -60 78 -126 143 -161 45 -25 63 -28 186 -34 l135 -6 0 -414 0 -413 -140 0
-140 0 0 180 0 180 -116 0 -116 0 5 -162 c5 -185 17 -230 74 -297 19 -23 58
-55 87 -71 50 -29 53 -30 205 -30 181 0 212 10 285 91 79 88 81 100 81 529 0
429 -2 441 -81 529 -71 79 -106 91 -267 91 l-137 0 0 330 0 330 125 0 125 0 0
-100 0 -100 111 0 112 0 -7 98 c-8 132 -45 207 -129 266 l-58 41 -147 3 -147
3 -51 -30z"/>
<path d="M23160 18660 l0 -1040 115 0 115 0 0 1040 0 1040 -115 0 -115 0 0
-1040z"/>
<path d="M24320 18660 l0 -1040 116 0 115 0 -5 118 c-3 64 -8 286 -11 492 -4
206 -13 463 -20 570 -8 107 -15 211 -14 230 0 20 40 -105 93 -290 174 -602
321 -1086 338 -1107 7 -9 39 -13 94 -13 l84 0 0 1040 0 1040 -116 0 -116 0 6
-122 c3 -68 8 -271 11 -453 3 -181 13 -432 21 -557 9 -125 14 -234 12 -243 -2
-9 -63 188 -137 437 -74 249 -170 562 -213 696 l-79 242 -89 0 -90 0 0 -1040z"/>
<path d="M26020 19678 c0 -22 215 -1938 226 -2015 l6 -43 137 0 136 0 114
1008 c62 554 116 1022 119 1040 l5 32 -126 0 -125 0 -7 -62 c-3 -35 -30 -403
-60 -818 -31 -415 -57 -762 -59 -770 -2 -8 -4 11 -5 43 0 32 -26 394 -56 803
-30 410 -55 759 -55 775 l0 29 -125 0 c-122 0 -125 -1 -125 -22z"/>
<path d="M27680 18660 l0 -1040 350 0 350 0 0 105 0 105 -235 0 -235 0 0 460
0 460 145 0 145 0 0 105 0 105 -145 0 -145 0 0 265 0 265 220 0 220 0 0 105 0
105 -335 0 -335 0 0 -1040z"/>
<path d="M30850 19595 l0 -105 145 0 145 0 0 -930 0 -930 115 0 115 0 0 930 0
930 145 0 145 0 0 105 0 105 -405 0 -405 0 0 -105z"/>
<path d="M35165 19686 c-16 -8 -45 -30 -64 -49 -51 -54 -61 -114 -61 -368 0
-208 1 -217 22 -245 12 -16 28 -33 36 -38 11 -6 7 -12 -15 -26 -65 -39 -64
-34 -61 -617 4 -579 4 -576 65 -644 57 -63 93 -69 400 -69 l263 0 0 615 0 615
105 0 105 0 0 105 0 105 -350 0 -350 0 0 210 0 210 145 0 145 0 0 -55 0 -55
100 0 100 0 0 160 0 160 -277 0 c-210 -1 -285 -4 -308 -14z m365 -1336 l0
-510 -140 0 -140 0 0 510 0 510 140 0 140 0 0 -510z"/>
<path d="M39380 18665 l0 -1035 110 0 110 0 0 399 0 398 145 6 c131 4 151 8
200 32 66 32 118 90 145 162 19 50 20 78 20 437 0 424 -3 449 -63 528 -18 23
-55 56 -82 73 l-48 30 -269 3 -268 3 0 -1036z m510 400 l0 -425 -145 0 -145 0
0 425 0 425 145 0 145 0 0 -425z"/>
<path d="M41260 19687 c0 -20 -228 -1995 -235 -2034 l-6 -33 115 0 115 0 5 33
c6 36 46 445 46 471 0 14 16 16 109 16 l110 0 6 -42 c6 -48 45 -446 45 -465 0
-10 30 -13 115 -13 l115 0 -1 33 c0 17 -53 484 -117 1037 l-117 1005 -153 3
c-123 2 -152 0 -152 -11z m200 -879 c22 -235 40 -434 40 -443 0 -12 -16 -15
-91 -15 l-91 0 5 28 c2 15 24 234 48 487 24 253 45 440 47 415 1 -25 21 -237
42 -472z"/>
<path d="M42690 18661 l0 -1041 115 0 115 0 0 490 0 490 160 0 160 0 0 -435
c0 -412 1 -438 19 -474 32 -62 59 -73 188 -79 82 -3 113 -2 113 7 0 6 -20 31
-45 54 l-45 44 0 429 c0 250 -4 443 -10 463 -11 39 -56 91 -79 91 -10 1 -5 7
11 16 57 30 58 39 58 447 l0 373 -27 55 c-21 41 -39 60 -73 79 -45 25 -46 25
-352 28 l-308 3 0 -1040z m540 489 l0 -340 -155 0 -155 0 0 340 0 340 155 0
155 0 0 -340z"/>
<path d="M44400 19595 l0 -105 145 0 145 0 0 -935 0 -935 115 0 115 0 0 935 0
935 145 0 145 0 0 105 0 105 -405 0 -405 0 0 -105z"/>
<path d="M46090 18660 l0 -1040 116 0 115 0 -5 118 c-3 64 -8 286 -11 492 -4
206 -13 463 -20 570 -8 107 -15 211 -14 230 0 20 40 -105 93 -290 174 -602
321 -1086 338 -1107 7 -9 39 -13 94 -13 l84 0 0 1040 0 1040 -116 0 -116 0 6
-122 c3 -68 8 -271 11 -453 3 -181 13 -432 21 -557 9 -125 14 -234 12 -243 -2
-9 -63 188 -137 437 -74 249 -170 562 -213 696 l-79 242 -89 0 -90 0 0 -1040z"/>
<path d="M47810 18660 l0 -1040 350 0 350 0 0 105 0 105 -235 0 -235 0 0 460
0 460 145 0 145 0 0 105 0 105 -145 0 -145 0 0 265 0 265 220 0 220 0 0 105 0
105 -335 0 -335 0 0 -1040z"/>
<path d="M49370 18661 l0 -1041 115 0 115 0 0 490 0 490 160 0 160 0 0 -435
c0 -412 1 -438 19 -474 32 -62 59 -73 188 -79 82 -3 113 -2 113 7 0 6 -20 31
-45 54 l-45 44 0 429 c0 250 -4 443 -10 463 -11 39 -56 91 -79 91 -10 1 -5 7
11 16 57 30 58 39 58 447 l0 373 -27 55 c-21 41 -39 60 -73 79 -45 25 -46 25
-352 28 l-308 3 0 -1040z m540 489 l0 -340 -155 0 -155 0 0 340 0 340 155 0
155 0 0 -340z"/>
</g>
</svg>
